<svg width="83" height="63" viewBox="0 0 83 63" fill="none" xmlns="http://www.w3.org/2000/svg">
<path d="M4.91516 62.4C1.84849 62.4 0.315157 61.4033 0.315157 59.41C0.315157 58.6433 0.621823 58.03 1.23516 57.57C1.84849 56.9567 2.76849 56.5733 3.99516 56.42C7.67516 55.5 11.1252 54.12 14.3452 52.28C17.5652 50.44 20.1718 47.9867 22.1652 44.92C24.3118 41.7 25.3852 37.7133 25.3852 32.96C25.3852 30.8133 24.4652 28.6667 22.6252 26.52C20.9385 24.3733 18.7918 23.1467 16.1852 22.84C13.1185 22.38 10.5885 21.23 8.59516 19.39C6.75516 17.3967 5.83516 14.9433 5.83516 12.03C5.83516 8.65666 7.21516 5.81999 9.97516 3.51999C12.7352 1.21999 15.9552 0.0699898 19.6352 0.0699898C25.6152 0.0699898 30.5218 2.21666 34.3552 6.50999C38.1885 10.8033 40.1052 16.2467 40.1052 22.84C40.1052 28.82 38.9552 34.2633 36.6552 39.17C34.3552 43.9233 31.3652 48.0633 27.6852 51.59C24.1585 55.1167 20.3252 57.8 16.1852 59.64C12.1985 61.48 8.44182 62.4 4.91516 62.4ZM47.4652 62.4C44.3985 62.4 42.8652 61.4033 42.8652 59.41C42.8652 58.6433 43.1718 58.03 43.7852 57.57C44.3985 56.9567 45.3185 56.5733 46.5452 56.42C50.2252 55.5 53.6752 54.12 56.8952 52.28C60.1152 50.44 62.7218 47.9867 64.7152 44.92C66.8618 41.7 67.9352 37.7133 67.9352 32.96C67.9352 30.8133 67.0152 28.6667 65.1752 26.52C63.4885 24.3733 61.3418 23.1467 58.7352 22.84C55.6685 22.38 53.1385 21.23 51.1452 19.39C49.3052 17.3967 48.3852 14.9433 48.3852 12.03C48.3852 8.65666 49.7652 5.81999 52.5252 3.51999C55.2852 1.21999 58.5052 0.0699898 62.1852 0.0699898C68.1652 0.0699898 73.0718 2.21666 76.9052 6.50999C80.7385 10.8033 82.6552 16.2467 82.6552 22.84C82.6552 28.82 81.5052 34.2633 79.2052 39.17C76.9052 43.9233 73.9152 48.0633 70.2352 51.59C66.7085 55.1167 62.8752 57.8 58.7352 59.64C54.7485 61.48 50.9918 62.4 47.4652 62.4Z" fill="#989F8D" fill-opacity="0.1"/>
</svg>
