<svg width="54" height="54" viewBox="0 0 54 54" fill="none" xmlns="http://www.w3.org/2000/svg">
<rect x="0.5" y="0.5" width="53" height="53" rx="26.5" stroke="#302611" stroke-opacity="0.3"/>
<path d="M27.1465 33.7617C27.0293 33.9082 26.7949 33.9082 26.6484 33.7617L20.5254 27.6387C20.3789 27.4922 20.3789 27.2871 20.5254 27.1406L26.6484 21.0176C26.7949 20.8711 27.0293 20.8711 27.1465 21.0176L27.7324 21.5742C27.8789 21.7207 27.8789 21.9551 27.7324 22.0723L23.1914 26.6133H33.2109C33.3867 26.6133 33.5625 26.7891 33.5625 26.9648V27.7852C33.5625 27.9902 33.3867 28.1367 33.2109 28.1367H23.1914L27.7324 32.707C27.8789 32.8242 27.8789 33.0586 27.7324 33.2051L27.1465 33.7617Z" fill="#70675F" fill-opacity="0.3"/>
</svg>
