<svg width="83" height="63" viewBox="0 0 83 63" fill="none" xmlns="http://www.w3.org/2000/svg">
<path d="M77.8252 0.609996C81.0452 0.609996 82.6552 1.60666 82.6552 3.6C82.6552 4.36666 82.2718 4.97999 81.5052 5.43999C80.8918 5.89999 79.9718 6.28332 78.7452 6.58999C75.2185 7.35665 71.7685 8.73665 68.3952 10.73C65.1752 12.57 62.4918 15.1 60.3452 18.32C58.3518 21.3867 57.3552 25.2967 57.3552 30.05C57.3552 32.1967 58.2752 34.3433 60.1152 36.49C61.9552 38.4833 64.1018 39.71 66.5552 40.17C69.7752 40.63 72.3052 41.8567 74.1452 43.85C76.1385 45.69 77.1352 48.0667 77.1352 50.98C77.1352 54.3533 75.6785 57.19 72.7652 59.49C70.0052 61.79 66.8618 62.94 63.3352 62.94C57.2018 62.94 52.2185 60.7933 48.3852 56.5C44.5518 52.2067 42.6352 46.6867 42.6352 39.94C42.6352 34.1133 43.7852 28.8233 46.0852 24.07C48.3852 19.1633 51.2985 14.9467 54.8252 11.42C58.5052 7.89333 62.3385 5.20999 66.3252 3.36999C70.4652 1.52999 74.2985 0.609996 77.8252 0.609996ZM35.2752 0.609996C38.4952 0.609996 40.1052 1.60666 40.1052 3.6C40.1052 4.36666 39.7218 4.97999 38.9552 5.43999C38.3418 5.89999 37.4218 6.28332 36.1952 6.58999C32.6685 7.35665 29.2185 8.73665 25.8452 10.73C22.6252 12.57 20.0185 15.1 18.0252 18.32C16.0318 21.3867 15.0352 25.2967 15.0352 30.05C15.0352 32.1967 15.9552 34.3433 17.7952 36.49C19.6352 38.4833 21.7818 39.71 24.2352 40.17C27.3018 40.63 29.7552 41.8567 31.5952 43.85C33.5885 45.69 34.5852 48.0667 34.5852 50.98C34.5852 54.3533 33.2052 57.19 30.4452 59.49C27.6852 61.79 24.4652 62.94 20.7852 62.94C14.8052 62.94 9.82182 60.7933 5.83516 56.5C2.00182 52.2067 0.0851563 46.6867 0.0851563 39.94C0.0851563 34.1133 1.23516 28.8233 3.53516 24.07C5.83516 19.1633 8.82516 14.9467 12.5052 11.42C16.1852 7.89333 20.0185 5.20999 24.0052 3.36999C27.9918 1.52999 31.7485 0.609996 35.2752 0.609996Z" fill="#989F8D" fill-opacity="0.1"/>
</svg>
