<svg width="54" height="54" viewBox="0 0 54 54" fill="none" xmlns="http://www.w3.org/2000/svg">
<rect x="0.5" y="0.5" width="53" height="53" rx="26.5" stroke="#302611" stroke-opacity="0.3"/>
<path d="M26.8242 21.0176C26.9414 20.8711 27.1758 20.8711 27.3223 21.0176L33.4453 27.1406C33.5918 27.2871 33.5918 27.4922 33.4453 27.6387L27.3223 33.7617C27.1758 33.9082 26.9414 33.9082 26.8242 33.7617L26.2383 33.2051C26.0918 33.0586 26.0918 32.8242 26.2383 32.707L30.7793 28.1367H20.7891C20.584 28.1367 20.4375 27.9902 20.4375 27.7852V26.9648C20.4375 26.7891 20.584 26.6133 20.7891 26.6133H30.7793L26.2383 22.0723C26.0918 21.9551 26.0918 21.7207 26.2383 21.5742L26.8242 21.0176Z" fill="#70675F" fill-opacity="0.3"/>
</svg>
